<?xml version="1.0" encoding="utf-8"?>

<!-- The icon can be used freely in both personal and commercial projects with no attribution required, but always appreciated. 
You may NOT sub-license, resell, rent, redistribute or otherwise transfer the icon without express written permission from iconmonstr.com -->

<!DOCTYPE svg PUBLIC "-//W3C//DTD SVG 1.1//EN" "http://www.w3.org/Graphics/SVG/1.1/DTD/svg11.dtd">
<svg version="1.1" xmlns="http://www.w3.org/2000/svg" xmlns:xlink="http://www.w3.org/1999/xlink" x="0px" y="0px"
	 width="512px" height="512px" viewBox="0 0 512 512" enable-background="new 0 0 512 512" xml:space="preserve">
<path id="shopping-cart-7-icon" d="M227.682,380c0,14.852-12.039,26.891-26.891,26.891S173.9,394.852,173.9,380
	s12.039-26.891,26.891-26.891S227.682,365.148,227.682,380z M389.609,105.109l-59.18,188.166H159.338L94.416,143.609H50.418
	l82.914,189.666h0.275h226.07l59.178-188.166h29.98l12.746-40H389.609z M289.676,353.109c-14.852,0-26.891,12.039-26.891,26.891
	s12.039,26.891,26.891,26.891s26.891-12.039,26.891-26.891S304.527,353.109,289.676,353.109z"/>
</svg>
