<?xml version="1.0" encoding="utf-8"?>
<!-- Generator: Adobe Illustrator 18.1.1, SVG Export Plug-In . SVG Version: 6.00 Build 0)  -->
<svg version="1.1" id="Layer_1" xmlns="http://www.w3.org/2000/svg" xmlns:xlink="http://www.w3.org/1999/xlink" x="0px" y="0px"
	 viewBox="-49 141 512 512" enable-background="new -49 141 512 512" xml:space="preserve">
<path id="shopping-cart-7-icon" fill="#FFFFFF" d="M178.7,521c0,14.9-12,26.9-26.9,26.9s-26.9-12-26.9-26.9s12-26.9,26.9-26.9
	S178.7,506.1,178.7,521z M340.6,246.1l-59.2,188.2H110.3L45.4,284.6h-44l82.9,189.7h0.3h226.1l59.2-188.2h30l12.7-40
	C412.6,246.1,340.6,246.1,340.6,246.1z M240.7,494.1c-14.9,0-26.9,12-26.9,26.9s12,26.9,26.9,26.9s26.9-12,26.9-26.9
	S255.5,494.1,240.7,494.1z"/>
</svg>
