<?xml version="1.0" encoding="utf-8"?>
<!-- Generator: Adobe Illustrator 18.1.1, SVG Export Plug-In . SVG Version: 6.00 Build 0)  -->
<svg version="1.1" id="Layer_1" xmlns="http://www.w3.org/2000/svg" xmlns:xlink="http://www.w3.org/1999/xlink" x="0px" y="0px"
	 viewBox="162 0 299.7 792" enable-background="new 162 0 299.7 792" xml:space="preserve">
<g>
	<g>
		<defs>
			<rect id="SVGID_1_" x="168.7" y="5.8" width="293" height="808.6"/>
		</defs>
		<clipPath id="SVGID_2_">
			<use xlink:href="#SVGID_1_"  overflow="visible"/>
		</clipPath>
		<path clip-path="url(#SVGID_2_)" fill="#1D1D1B" d="M423.4,5.8h-2.9c-5.8,3.7-14.2,12.5-16.6,30.4h33.7
			C437.5,19.6,431.3,5.8,423.4,5.8"/>
	</g>
</g>
<g>
	<g>
		<defs>
			<path id="SVGID_3_" d="M407.1,5.8L407.1,5.8h-3.7h-1.2h-21.2H208.6c-10.4,0-18.7,15-18.7,33.3v632.6c0,18.3,7.5,24.6,16.6,32.5
				l78.7,67.8c9.2,7.9,24.1,7.5,33.3-0.8l72.4-66.6c9.2-8.3,16.6-14.6,16.6-32.9V42v-6.2c0.8-16.2,8.3-28.7,17.1-30
				C424.6,5.8,407.1,5.8,407.1,5.8z"/>
		</defs>
		<clipPath id="SVGID_4_">
			<use xlink:href="#SVGID_3_"  overflow="visible"/>
		</clipPath>
		
			<linearGradient id="SVGID_5_" gradientUnits="userSpaceOnUse" x1="-37.7748" y1="-47.6262" x2="-36.7748" y2="-47.6262" gradientTransform="matrix(0 -772.1067 772.1067 0 37079.543 -28388.0332)">
			<stop  offset="0" style="stop-color:#B75E5C"/>
			<stop  offset="0.3885" style="stop-color:#B8605E"/>
			<stop  offset="0.5403" style="stop-color:#BC6764"/>
			<stop  offset="0.6508" style="stop-color:#C27370"/>
			<stop  offset="0.7412" style="stop-color:#CB8480"/>
			<stop  offset="0.8193" style="stop-color:#D79B95"/>
			<stop  offset="0.8889" style="stop-color:#E5B7AF"/>
			<stop  offset="0.9508" style="stop-color:#F6D7CD"/>
			<stop  offset="0.9693" style="stop-color:#FCE2D7"/>
			<stop  offset="1" style="stop-color:#B75E5C"/>
		</linearGradient>
		<rect x="189.9" y="5.8" clip-path="url(#SVGID_4_)" fill="url(#SVGID_5_)" width="234.3" height="774.1"/>
	</g>
</g>
<g>
	<g>
		<defs>
			<rect id="SVGID_6_" x="168.7" y="5.8" width="293" height="808.6"/>
		</defs>
		<clipPath id="SVGID_7_">
			<use xlink:href="#SVGID_6_"  overflow="visible"/>
		</clipPath>
		<path clip-path="url(#SVGID_7_)" fill="#FFFFFF" d="M300.6,113.6c26.6,0,45.8,20.4,45.8,45.8s-19.1,45.8-45.8,45.8
			s-45.8-20.4-45.8-45.8C254.4,134,273.5,113.6,300.6,113.6 M300.6,197.7c22.1,0,37.5-17.1,37.5-37.9s-15.8-37.9-37.5-37.9
			c-22.1,0-37.5,17.1-37.5,37.9S278.5,197.7,300.6,197.7 M306,139h-10.4l-15,40h9.2l2.9-9.2h15l3.3,9.6l9.2-1.7L306,139z
			 M295.2,162.7l5.4-15.8l5.4,15.8H295.2z"/>
	</g>
	<g>
		<defs>
			<rect id="SVGID_8_" x="168.7" y="5.8" width="293" height="808.6"/>
		</defs>
		<clipPath id="SVGID_9_">
			<use xlink:href="#SVGID_8_"  overflow="visible"/>
		</clipPath>
		<path clip-path="url(#SVGID_9_)" fill="#FFFFFF" d="M300.6,210.6c26.6,0,45.8,20.4,45.8,45.8s-19.1,45.8-45.8,45.8
			s-45.8-20.4-45.8-45.8C254.4,231,273.5,210.6,300.6,210.6 M300.6,294.7c22.1,0,37.5-17.1,37.5-37.9s-15.8-37.9-37.5-37.9
			s-37.5,17.1-37.5,37.9C263.1,277.6,278.5,294.7,300.6,294.7 M301.4,236h-13.7v40h9.2v-14.2h4.2c9.6,0,15.8-4.2,15.8-12.9
			C316.4,240.6,310.6,236,301.4,236 M300.2,255.1h-3.7v-12.5h3.7c5,0,7.5,2.1,7.5,5.8C307.7,253,305.2,255.1,300.2,255.1"/>
	</g>
	<g>
		<defs>
			<rect id="SVGID_10_" x="168.7" y="5.8" width="293" height="808.6"/>
		</defs>
		<clipPath id="SVGID_11_">
			<use xlink:href="#SVGID_10_"  overflow="visible"/>
		</clipPath>
		<path clip-path="url(#SVGID_11_)" fill="#FFFFFF" d="M300.6,307.6c26.6,0,45.8,20.4,45.8,45.8s-19.1,45.8-45.8,45.8
			s-45.8-20.4-45.8-45.8C254.4,328,273.5,307.6,300.6,307.6 M300.6,391.6c22.1,0,37.5-17.1,37.5-37.9c0-20.8-15.8-37.9-37.5-37.9
			c-22.1,0-37.5,17.1-37.5,37.9C263.1,374.6,278.5,391.6,300.6,391.6 M313.1,365.8h-16.6v-9.6h13.7l-1.2-7.1h-12.1v-8.3h15.8v-7.1
			h-25v40h25.4V365.8z"/>
	</g>
	<g>
		<defs>
			<rect id="SVGID_12_" x="168.7" y="5.8" width="293" height="808.6"/>
		</defs>
		<clipPath id="SVGID_13_">
			<use xlink:href="#SVGID_12_"  overflow="visible"/>
		</clipPath>
		<path clip-path="url(#SVGID_13_)" fill="#FFFFFF" d="M300.6,404.5c26.6,0,45.8,20.4,45.8,45.8s-19.1,45.8-45.8,45.8
			s-45.8-20.4-45.8-45.8C254.4,424.9,273.5,404.5,300.6,404.5 M300.6,488.6c22.1,0,37.5-17.1,37.5-37.9c0-20.8-15.8-37.9-37.5-37.9
			c-22.1,0-37.5,17.1-37.5,37.9C263.1,471.5,278.5,488.6,300.6,488.6 M314.7,442.8c0-7.9-5.8-12.5-15.8-12.5h-13.7v40h9.2v-14.2h3.7
			l10,14.6l9.2-1.7l-10.4-14.6C311.4,452,314.7,448.2,314.7,442.8 M298.5,449.5h-4.2v-12.1h4.2c4.6,0,7.5,2.1,7.5,5.8
			C305.6,447,303.1,449.5,298.5,449.5"/>
	</g>
	<g>
		<defs>
			<rect id="SVGID_14_" x="168.7" y="5.8" width="293" height="808.6"/>
		</defs>
		<clipPath id="SVGID_15_">
			<use xlink:href="#SVGID_14_"  overflow="visible"/>
		</clipPath>
		<path clip-path="url(#SVGID_15_)" fill="#FFFFFF" d="M300.6,501.9c26.6,0,45.8,20.4,45.8,45.8c0,25.4-19.1,45.8-45.8,45.8
			s-45.8-20.4-45.8-45.8C254.4,522.3,273.5,501.9,300.6,501.9 M300.6,585.6c22.1,0,37.5-17.1,37.5-37.9c0-20.8-15.8-37.9-37.5-37.9
			s-37.5,17.1-37.5,37.9C263.1,568.5,278.5,585.6,300.6,585.6 M316,527.3h-32v7.9h11.7v32h9.2v-32h12.5L316,527.3z"/>
	</g>
	<g>
		<defs>
			<rect id="SVGID_16_" x="168.7" y="5.8" width="293" height="808.6"/>
		</defs>
		<clipPath id="SVGID_17_">
			<use xlink:href="#SVGID_16_"  overflow="visible"/>
		</clipPath>
		<path clip-path="url(#SVGID_17_)" fill="#FFFFFF" d="M300.6,598.9c26.6,0,45.8,20.4,45.8,45.8c0,25.4-19.1,45.8-45.8,45.8
			s-45.8-20.4-45.8-45.8C254.4,619.3,273.5,598.9,300.6,598.9 M300.6,682.5c22.1,0,37.5-17.1,37.5-37.9s-15.8-37.9-37.5-37.9
			c-22.1,0-37.5,17.1-37.5,37.9S278.5,682.5,300.6,682.5 M306,623.9h-10.4l-14.6,40h9.2l2.9-9.2h15l3.3,9.6l9.2-1.7L306,623.9z
			 M295.2,647.6l5.4-15.8l5.4,15.8H295.2z"/>
	</g>
</g>
</svg>
